PathFileType	4	(X/Y/Z)	S00_P01_T02_Participants1-2_P2_0-100.trc
DataRate	CameraRate	NumFrames	NumMarkers	Units	OrigDataRate	OrigDataStartFrame	OrigNumFrames
60	60	9	21	m	60	75	100
Frame#	Time	RHip			RKnee			RAnkle			RBigToe			RSmallToe			RHeel			LHip			LKnee			LAnkle			LBigToe			LSmallToe			LHeel			Neck			Head			Nose			RShoulder			RElbow			RWrist			LShoulder			LElbow			LWrist		
		X1	Y1	Z1	X2	Y2	Z2	X3	Y3	Z3	X4	Y4	Z4	X5	Y5	Z5	X6	Y6	Z6	X7	Y7	Z7	X8	Y8	Z8	X9	Y9	Z9	X10	Y10	Z10	X11	Y11	Z11	X12	Y12	Z12	X13	Y13	Z13	X14	Y14	Z14	X15	Y15	Z15	X16	Y16	Z16	X17	Y17	Z17	X18	Y18	Z18	X19	Y19	Z19	X20	Y20	Z20	X21	Y21	Z21
76	1.2666666666666666	-0.16864114116729315	0.940445748217136	-0.8388116848761051	-0.12155941383514822	0.5422328818367361	-0.750177133549552	-0.06578661513169551	0.13936555500066197	-0.7506571560802073	-0.05910597996081162	0.04576088850112005	-0.6226423202740684	-0.09123510770464723	0.050723392099022505	-0.6172224853236999	-0.054098579293389515	0.09621037658691729	-0.7697215040445917	0.024553239546754032	0.8905048954192338	-0.936310958006165	-0.002291565602348933	0.5131148057011404	-0.9036971707538906	-0.027267612596708075	0.1542331726532748	-1.151615032440046	0.0005154615335417548	0.07135546663015077	-0.9820801558497496	0.013792696047937656	0.07240139624217179	-1.044501432168033	-0.03417608857687009	0.14584704694321876	-1.1300416312273485	0.08715641001102682	1.4038499783752851	-0.7651237662824953	0.2153255353796212	1.610268447306854	-0.5625388179078256	0.15658763411010596	1.4454188754252097	-0.5892184069805166	-0.07017581588527466	1.4417661368789574	-0.7370520260211977	-0.337410034712543	1.381326262464315	-0.786495648114732	-0.2986146880955917	1.4605663836732505	-0.5552409772917638	0.2241615124052997	1.329264793964224	-0.8608131525656819	0.35294711840618304	1.0843966849944466	-0.9646625101614589	0.4667664220412687	0.8685300758923218	-0.838120188752825
77	1.2833333333333334	-0.15993516037381644	0.9344797147424687	-0.8256260733400108	-0.11260781742348644	0.5404087107075071	-0.7351784902496887	-0.05827999850963388	0.1339326601280054	-0.7552852587809735	-0.057350079912413546	0.04010974329617049	-0.6288305144797313	-0.08379249175454552	0.04350578802239452	-0.6231492028519822	-0.04584111947040089	0.08986281714263647	-0.7803063790321865	0.03343302959284381	0.8873617492615623	-0.9171725440410066	0.001796004956042879	0.5076671440508046	-0.9028476434708478	-0.026970377112630377	0.15748072663664525	-1.150233510876704	0.002292650090610681	0.07186857218146112	-0.9829510391317626	0.014356637874780339	0.07327571066883543	-1.0439496888036985	-0.03472955537354748	0.15039639842014732	-1.1357627640243837	0.07639246964480827	1.4088709538252304	-0.7550460141220705	0.19409803981616172	1.6181675492382115	-0.5533953961318018	0.1422271749763664	1.4560126746114121	-0.5805972336546413	-0.08489624071374038	1.437335400136709	-0.7352332112712565	-0.3480764164260194	1.367870538855901	-0.7714654328374208	-0.3209348056023228	1.444074103948329	-0.5545682902943082	0.2206709046869485	1.3390482028759916	-0.8407910304558347	0.3565878030733024	1.1019505989548262	-0.9577891035017143	0.47816205355671954	0.8923550136174125	-0.8382090335089845
78	1.3	-0.1516713139227111	0.9286372709588298	-0.8135318034813956	-0.10624655499420803	0.5379265643652293	-0.7217974832339452	-0.053664605440358906	0.12945413167477546	-0.7578695296322562	-0.055973899568451786	0.03661948536374585	-0.6314918963932934	-0.07851033467154907	0.038125138918806055	-0.6263333189915579	-0.04085253398225671	0.08574036528659532	-0.7868351793158928	0.04198176268799788	0.8855333636223044	-0.8976704929912626	0.006223689496410131	0.5013856777711948	-0.9009324369458289	-0.025617113995670602	0.1619914737539654	-1.1480733542935029	0.003291401990775973	0.07239227945523999	-0.9841895818535784	0.01423384620640253	0.07504752951149589	-1.0432512512752474	-0.03462362802370356	0.15549164551236155	-1.1436249621506378	0.06471022245365819	1.4129985436229162	-0.743786604917896	0.1715572825275229	1.6250414036699747	-0.5457047489610105	0.12654652645732148	1.4653392482700154	-0.571893249970359	-0.09988423371948767	1.4325076008631976	-0.7349529722987416	-0.35777568510290997	1.3544989861320411	-0.7558323638334609	-0.3434876108859672	1.4282024445454657	-0.5546122076435503	0.21547713587277517	1.3490654338879622	-0.8232284900266899	0.36178916182874343	1.121141018224964	-0.9448586550643392	0.4909792645030859	0.9197017263824101	-0.8380071736001956
79	1.3166666666666669	-0.1443084366633556	0.923351461086468	-0.8026167900019103	-0.1018391307066695	0.535720111923975	-0.7092883110693924	-0.0515010760981513	0.12627653693815794	-0.7584674924794091	-0.05464208120666683	0.03533879438965362	-0.6308770341604394	-0.0754305036861676	0.03456403918627626	-0.6271662869151035	-0.038738140015569994	0.08351425130315346	-0.7899967931712992	0.050523692548640003	0.885252466967699	-0.8781334138425955	0.011541451913186855	0.49521434630231526	-0.8969196868895829	-0.02296370127601246	0.16829685688511128	-1.1441426444929816	0.0037353517024353443	0.07316060575694422	-0.9854287387834924	0.0136570248840247	0.07821941258964417	-1.0408300157555026	-0.03341219020985771	0.16123808889494703	-1.152855883695327	0.05256097609895599	1.4159292890366437	-0.731951492454017	0.14745959142766915	1.6309689452281695	-0.5381399977289821	0.10940274299546866	1.472942694944478	-0.5622294123899891	-0.11458250153123303	1.4279190174742817	-0.7327214231486632	-0.36596427950003796	1.3412915809476393	-0.7412125867845459	-0.36556291905873883	1.4119380860261435	-0.5532556472680333	0.20723091982436215	1.359056515659903	-0.8121611547486765	0.3675024344736153	1.1428918225886855	-0.9282908864424871	0.5051981453237507	0.9512955706361557	-0.8357542722861233
80	1.3333333333333333	-0.13776307935175103	0.9189394221857873	-0.7929299120963146	-0.09848863278694156	0.534259600634402	-0.6972491158783507	-0.05103780527930071	0.12434028335478706	-0.7578285050154396	-0.05376760517995169	0.035602808767868296	-0.6282799076784136	-0.07408098282488854	0.03212119593869305	-0.6267614302553325	-0.03844606805252317	0.08272936685583353	-0.7911400045891034	0.059037192178698586	0.8864363028496032	-0.8595822666820451	0.018138526638035456	0.49033959856705006	-0.88911130879305	-0.018875849008570943	0.17674327798159348	-1.1371919873239067	0.0038829756711531833	0.07431997678347785	-0.9860864186066737	0.013028158906483206	0.0829682298543796	-1.0353362002039173	-0.030475853000243514	0.16776809223728173	-1.1616702340101215	0.0406072023284578	1.4176041864507383	-0.720342143974901	0.1215627758587973	1.6359301138449276	-0.529110880671769	0.09094770974753565	1.4789588991599532	-0.5507707413251347	-0.12831768096863388	1.424244344999271	-0.7252142873592643	-0.3723756237625674	1.3280491736179865	-0.7291926549148352	-0.38662750089818454	1.3943939857410894	-0.5487400570465034	0.1959183169736242	1.3689532805836149	-0.8077793810524461	0.37235716674669056	1.1677668295864316	-0.911366448318037	0.5206636644116271	0.9871037529388491	-0.8308617338519937
81	1.35	-0.13140985404787817	0.9154998055238378	-0.7842470581232874	-0.09536120640430187	0.5331406078966084	-0.6862892131238374	-0.05142457864136345	0.12341763350625887	-0.7568404729226146	-0.05350248050953562	0.03650062104764887	-0.6244992719081102	-0.07398072541467694	0.03032307221817245	-0.626355008468116	-0.03866418808366245	0.08301870809720513	-0.7914350284314207	0.06726359135835626	0.8886943315921981	-0.8432677492295025	0.02610979667129122	0.48750644065671167	-0.875953940537303	-0.01328385112292917	0.18727774113687323	-1.126145195658695	0.004085302798622192	0.07597734863577607	-0.9852250728206657	0.012969146502307983	0.08910067185411177	-1.0263780817786345	-0.025341138312680356	0.17558591534277898	-1.1670534976647868	0.02943687001258865	1.4182159203801767	-0.7095175009070802	0.09425458350486528	1.6397819160310323	-0.5178160646068919	0.07198384697205944	1.483734884720045	-0.5375436532403217	-0.14058163289407485	1.421702075067094	-0.7113678993863676	-0.37736249097637653	1.3145152745603372	-0.7196595972664678	-0.40626443528181233	1.3753718953526926	-0.5401836800459289	0.1825467832220998	1.378759488316905	-0.8074000599452825	0.37529933008329525	1.1956597501915698	-0.8960662185500122	0.5371182039008492	1.0264438487777459	-0.8234793196885898
82	1.3666666666666667	-0.12450111842313417	0.9129775510135719	-0.7759414067724595	-0.09240254360550389	0.5309629319708128	-0.6786105817241604	-0.05194947882834828	0.12350531921532189	-0.7560067765960489	-0.05354408265529457	0.03736953459981286	-0.6197447905613488	-0.07491128546213406	0.029308228506164897	-0.6267853274441544	-0.03847030970709298	0.08425332205589248	-0.791596292248645	0.07576565940159151	0.891099994517549	-0.8278505144951971	0.03518257913351441	0.48675161239286324	-0.856741395966134	-0.006331228068725938	0.1993195852175362	-1.1104130996432493	0.004878034989727066	0.0783109933466883	-0.9814669568678491	0.014278747996926503	0.09610418118016902	-1.0146354718053894	-0.017975607392414012	0.18527059160469936	-1.1654847423758978	0.019266439059435196	1.4181670799373673	-0.6993375771044748	0.06663887221018892	1.642540017825786	-0.5042854196251252	0.053493852240014725	1.4874639203072935	-0.523324872530742	-0.1513525023814348	1.4198626043528273	-0.6931344208838668	-0.38177716843400733	1.3005523043878577	-0.7115224600113612	-0.4236731910958678	1.3551061910645905	-0.5264922301491992	0.168503177286882	1.3883035469489613	-0.8073051500761736	0.3763294264112356	1.2259153310770226	-0.8808703602760157	0.5539452458418286	1.06851378799903	-0.8133302997958152
83	1.3833333333333333	-0.11657590035566308	0.9112054007760811	-0.7670774518198826	-0.09033826711948377	0.5264343780684426	-0.6765478728666098	-0.05224229124938704	0.12476817763808137	-0.7553624928006352	-0.05370119911134774	0.037936713308290314	-0.6145695024378237	-0.0767375281355887	0.029247957936716272	-0.6282282259458893	-0.03765021083772738	0.08650484095539351	-0.7919817965345853	0.0857435236686381	0.8925732547083498	-0.8099484491345454	0.04470003127194617	0.4877537845788576	-0.8319275801248385	0.0015236949716785075	0.21179521022748946	-1.0900918363779017	0.006915502044168825	0.08168325041323735	-0.9731951988337109	0.017818070313574172	0.10343157854463933	-1.0012000766262714	-0.00885362943872165	0.19664040857050946	-1.1546631952607287	0.009692053843479485	1.4180157524738333	-0.6887618179933895	0.040016599535883955	1.64434757928815	-0.48903596290713186	0.035893255819921345	1.490188291299447	-0.5086995706979329	-0.16113022963071105	1.417824944087159	-0.6740653586442061	-0.3864693368802561	1.2861175975134052	-0.7043386406039093	-0.43831866549246834	1.3339287560351223	-0.507347677799345	0.15497160314628983	1.3972464430128433	-0.8042647472883895	0.37647113444276914	1.257513498015576	-0.8612965359606574	0.5699655043364177	1.1128655206574303	-0.7997009478323945
84	1.4	-0.10767027699771277	0.909956262978074	-0.7568765072758639	-0.08949073587267409	0.5198743670846562	-0.6796785636926086	-0.052345539326956285	0.1272546564281896	-0.7547191906985339	-0.05399874286394015	0.03821167036091635	-0.6098812840013139	-0.0793717196513275	0.03005497673271523	-0.6304294973719455	-0.03657671211645567	0.08988489817471929	-0.7927978904043853	0.09735784645256575	0.8927941058379208	-0.7888025557754422	0.05389815122159349	0.49022735909105786	-0.8030239939604327	0.009673289567770563	0.22331495381563368	-1.0657756820999529	0.010761694417555432	0.08648772759294121	-0.9589816971622287	0.02433052286509175	0.11052472348491454	-0.9870464600344004	0.0012649291664590721	0.20837832592544978	-1.1345278383554824	-0.00011476555363601959	1.418256007545048	-0.6764040589330013	0.015277562094786479	1.6452074209627972	-0.47283840224695217	0.018989052093626765	1.4918898814798425	-0.49368841882581427	-0.17061448668966211	1.4146340160649342	-0.6573267662245588	-0.3917710512742889	1.2711724319161026	-0.6987475027780715	-0.4512267753708407	1.3121686811274296	-0.4852035472686352	0.14269392863696775	1.405345381321285	-0.796463968619638	0.37636099661229955	1.289225682105963	-0.8342713837069023	0.5838808792112623	1.1592353164909903	-0.7824815598853344
